#!OML:ASF I:\Actors\actors\Patient Classification 2\Patient 1\Session 1\actor1.ASF
:FULLY-SPECIFIED
:DEGREES
877
root -0.825305 18.5633 5.38936 -6.67656 2.74767 -1.57817
lowerback 9.61704 -0.541264 -0.0439461
upperback -1.16629 -0.689683 0.56965
thorax -6.62008 -0.325266 0.726952
lowerneck -10.963 -1.92224 -2.60394
upperneck 18.5679 -2.81812 3.31679
head 7.6024 -1.22129 1.2451
rclavicle 4.57515e-015 -1.2424e-015
rhumerus -51.2865 29.5202 -104.208
rradius 128.248
rwrist 24.3699
rhand -36.9479 -11.3553
rfingers 7.12502
rthumb -10.0244 -41.0965
lclavicle 4.57515e-015 -1.2424e-015
lhumerus -42.6498 -34.7347 107.058
lradius 129.733
lwrist -6.74337
lhand -19.6762 -64.5672
lfingers 7.12502
lthumb 6.65244 -34.6917
rfemur 15.6659 -0.391424 15.7925
rtibia 2.38542e-014
rfoot -19.2945 -12.0361
rtoes -3.10163
lfemur 0.915849 -6.96387 -12.3642
ltibia 22.391
lfoot -18.8073 6.17139
ltoes -56.3393
878
root -0.83428 18.5609 5.40816 -6.71269 2.56724 -1.53004
lowerback 9.48638 -0.554466 -0.0159878
upperback -1.11663 -0.710114 0.483736
thorax -6.49421 -0.338512 0.622049
lowerneck -11.1905 -1.96118 -2.49903
upperneck 18.3929 -2.92169 3.51043
head 7.59045 -1.24435 1.27873
rclavicle -7.29291e-015 1.59028e-014
rhumerus -53.2084 27.1721 -103.418
rradius 126.06
rwrist 24.215
rhand -33.0045 -11.5052
rfingers 7.12502
rthumb -6.21857 -41.3939
lclavicle -7.29291e-015 1.59028e-014
lhumerus -45.2178 -32.4815 106.992
lradius 127.745
lwrist -6.09712
lhand -18.7822 -62.1019
lfingers 7.12502
lthumb 7.5154 -32.2554
rfemur 15.7456 -0.210082 15.7982
rtibia -6.04305e-014
rfoot -19.3798 -11.9394
rtoes -2.75739
lfemur 1.11221 -6.8565 -12.3846
ltibia 22.3029
lfoot -18.8527 6.25014
ltoes -56.3955
879
root -0.842205 18.5584 5.42426 -6.78315 2.35551 -1.5411
lowerback 9.31591 -0.563121 0.0198221
upperback -1.00749 -0.719324 0.468063
thorax -6.28235 -0.345406 0.583669
lowerneck -11.2819 -1.92972 -2.49635
upperneck 18.088 -2.92233 3.78754
head 7.51096 -1.22012 1.36761
rclavicle 4.15584e-015 1.93815e-015
rhumerus -54.3721 24.6524 -102.286
rradius 123.685
rwrist 24.0967
rhand -27.8349 -12.2378
rfingers 7.12502
rthumb -1.22644 -42.214
lclavicle 4.15584e-015 1.93815e-015
lhumerus -47.2746 -30.1784 106.682
lradius 125.518
lwrist -5.32118
lhand -17.7016 -59.5211
lfingers 7.12502
lthumb 8.55829 -29.7145
rfemur 15.8408 -0.00336015 15.8723
rtibia -1.11319e-014
rfoot -19.4298 -11.8819
rtoes -2.35867
lfemur 1.34813 -6.8261 -12.3607
ltibia 22.2055
lfoot -18.9061 6.39191
ltoes -56.387
880
root -0.845836 18.5569 5.43545 -6.80877 2.00579 -1.57411
lowerback 9.21205 -0.514915 0.142143
upperback -0.973191 -0.642398 0.455802
thorax -6.1893 -0.312325 0.489295
lowerneck -11.3925 -1.90128 -2.49682
upperneck 17.9668 -2.91977 4.00424
head 7.49425 -1.19871 1.43781
rclavicle 4.03781e-015 -2.78299e-015
rhumerus -55.7996 22.7563 -101.763
rradius 121.135
rwrist 21.8269
rhand -24.2505 -13.6258
rfingers 7.12502
rthumb 2.23543 -43.5939
lclavicle 4.03781e-015 -2.78299e-015
lhumerus -49.0393 -27.8902 106.231
lradius 123.068
lwrist -4.39699
lhand -16.7202 -57.174
lfingers 7.12502
lthumb 9.50527 -27.4084
rfemur 15.8278 0.335727 15.9768
rtibia 4.13472e-014
rfoot -19.41 -11.8878
rtoes -2.21118
lfemur 1.55748 -6.9402 -12.3672
ltibia 22.1008
lfoot -19.073 6.73229
ltoes -56.224
881
root -0.846155 18.5564 5.44265 -6.80155 1.57849 -1.58081
lowerback 9.19684 -0.410604 0.24081
upperback -1.01709 -0.491665 0.461904
thorax -6.22878 -0.241452 0.418602
lowerneck -11.5698 -1.95503 -2.49758
upperneck 18.0419 -3.01028 4.08665
head 7.55512 -1.2317 1.45492
rclavicle 3.80176e-015 5.2181e-015
rhumerus -56.6568 20.1774 -100.402
rradius 118.487
rwrist 21.2303
rhand -18.8278 -14.5147
rfingers 7.12502
rthumb 7.47138 -44.3628
lclavicle 3.80176e-015 5.2181e-015
lhumerus -50.5103 -25.7017 105.715
lradius 120.395
lwrist -3.38784
lhand -15.3979 -55.1739
lfingers 7.12502
lthumb 10.781 -25.4706
rfemur 15.7429 0.754922 16.0514
rtibia -2.8625e-014
rfoot -19.3404 -11.9549
rtoes -2.45382
lfemur 1.73068 -7.13563 -12.4431
ltibia 22.0082
lfoot -19.2867 7.24704
ltoes -56.0866
882
root -0.852194 18.5553 5.45204 -6.82301 1.31997 -1.57524
lowerback 9.17178 -0.351325 0.194508
upperback -1.05538 -0.415033 0.506797
thorax -6.25467 -0.201342 0.480636
lowerneck -11.624 -1.98461 -2.55841
upperneck 18.0455 -3.06175 4.203
head 7.57066 -1.24901 1.49768
rclavicle -1.09829e-014 1.59028e-015
rhumerus -57.5444 17.5576 -99.2572
rradius 115.718
rwrist 20.4832
rhand -14.3511 -15.4469
rfingers 7.12502
rthumb 11.7906 -45.095
lclavicle -1.09829e-014 1.59028e-015
lhumerus -51.6801 -23.5998 105.147
lradius 117.582
lwrist -2.6182
lhand -13.3884 -52.821
lfingers 7.12502
lthumb 12.7187 -23.2283
rfemur 15.7436 1.00782 16.108
rtibia -3.65764e-014
rfoot -19.3237 -11.9947
rtoes -2.64469
lfemur 1.8945 -7.23919 -12.4837
ltibia 21.9417
lfoot -19.3857 7.58036
ltoes -56.1417
883
root -0.86039 18.5523 5.4638 -6.9278 1.14951 -1.64639
lowerback 9.16063 -0.320707 0.197769
upperback -1.06461 -0.370459 0.561429
thorax -6.25805 -0.178545 0.529519
lowerneck -11.5954 -1.98806 -2.62736
upperneck 18.0647 -3.08555 4.35997
head 7.57626 -1.25079 1.55861
rclavicle 5.33613e-015 4.12478e-015
rhumerus -57.8671 15.787 -98.1112
rradius 112.422
rwrist 19.8369
rhand -12.3264 -16.4222
rfingers 7.12502
rthumb 13.7425 -45.9484
lclavicle 5.33613e-015 4.12478e-015
lhumerus -52.6445 -21.5973 104.541
lradius 114.634
lwrist -2.44101
lhand -11.9982 -50.2057
lfingers 7.12502
lthumb 14.0588 -20.7012
rfemur 15.8669 1.16726 16.2453
rtibia 3.18055e-014
rfoot -19.3657 -11.9772
rtoes -2.61044
lfemur 2.12622 -7.22336 -12.401
ltibia 21.8946
lfoot -19.4268 7.70162
ltoes -56.2559
